<?xml version="1.0" encoding="UTF-8" standalone="no"?>
<svg
   xmlns:dc="http://purl.org/dc/elements/1.1/"
   xmlns:cc="http://creativecommons.org/ns#"
   xmlns:rdf="http://www.w3.org/1999/02/22-rdf-syntax-ns#"
   xmlns:svg="http://www.w3.org/2000/svg"
   xmlns="http://www.w3.org/2000/svg"
   xmlns:sodipodi="http://sodipodi.sourceforge.net/DTD/sodipodi-0.dtd"
   xmlns:inkscape="http://www.inkscape.org/namespaces/inkscape"
   version="1.0"
   width="976.89435pt"
   height="957.40057pt"
   viewBox="0 0 976.89435 957.40057"
   preserveAspectRatio="xMidYMid meet"
   id="svg2"
   inkscape:version="0.91 r13725"
   sodipodi:docname="dlab.svg">
  <defs
     id="defs18" />
  <sodipodi:namedview
     pagecolor="#ffffff"
     bordercolor="#666666"
     borderopacity="1"
     objecttolerance="10"
     gridtolerance="10"
     guidetolerance="10"
     inkscape:pageopacity="0"
     inkscape:pageshadow="2"
     inkscape:window-width="1503"
     inkscape:window-height="984"
     id="namedview16"
     showgrid="false"
     fit-margin-top="0"
     fit-margin-left="0"
     fit-margin-right="0"
     fit-margin-bottom="0"
     inkscape:zoom="0.35825427"
     inkscape:cx="364.72049"
     inkscape:cy="855.62622"
     inkscape:window-x="0"
     inkscape:window-y="0"
     inkscape:window-maximized="0"
     inkscape:current-layer="svg2" />
  <metadata
     id="metadata4">
Created by potrace 1.13, written by Peter Selinger 2001-2015
<rdf:RDF>
  <cc:Work
     rdf:about="">
    <dc:format>image/svg+xml</dc:format>
    <dc:type
       rdf:resource="http://purl.org/dc/dcmitype/StillImage" />
    <dc:title></dc:title>
  </cc:Work>
</rdf:RDF>
</metadata>
  <g
     transform="matrix(0.1,0,0,-0.1,-40.90798,994.60012)"
     id="g6"
     style="fill:#c5050a;stroke:none">
    <path
       d="M 3983,8581 C 2029,7829 422,7209 411,7204 393,7196 478,6968 1702,3785 2423,1909 3015,374 3016,372 c 3,-4 7154,2744 7162,2752 9,10 -2616,6821 -2630,6822 -7,1 -1612,-613 -3565,-1365 z m 337,-4136 0,-1185 -205,0 -205,0 0,74 0,73 -107,-54 c -162,-80 -241,-98 -448,-97 -140,1 -183,4 -246,22 -155,42 -275,111 -398,227 -193,183 -284,401 -284,685 -1,249 72,440 234,614 130,139 262,223 424,271 72,22 119,28 230,32 216,8 365,-24 520,-112 l 75,-43 0,339 0,339 205,0 205,0 0,-1185 z m 560,0 0,-1185 -205,0 -205,0 0,1185 0,1185 205,0 205,0 0,-1185 z m 2600,850 0,-335 83,44 c 45,25 123,57 172,72 84,26 103,28 275,28 203,1 266,-10 405,-73 196,-89 388,-285 469,-479 49,-117 69,-224 69,-372 0,-263 -79,-464 -252,-643 -121,-125 -273,-215 -441,-259 -73,-19 -110,-22 -255,-22 -203,1 -275,17 -427,93 l -98,49 0,-69 0,-69 -205,0 -205,0 0,1185 0,1185 205,0 205,0 0,-335 z m -560,-1095 0,-940 -205,0 -205,0 0,71 c 0,39 -3,69 -7,67 -5,-2 -51,-25 -103,-51 -151,-75 -232,-92 -435,-91 -140,1 -183,4 -246,22 -155,42 -275,111 -398,227 -193,183 -284,401 -284,685 -1,249 72,440 234,614 129,138 260,222 424,272 84,26 103,28 275,28 166,1 194,-2 269,-23 46,-13 126,-45 177,-72 l 94,-47 0,89 0,89 205,0 205,0 0,-940 z"
       id="path8"
       inkscape:connector-curvature="0" />
    <path
       d="m 3188,4717 c -228,-78 -363,-305 -343,-578 18,-265 144,-438 365,-503 68,-21 235,-22 305,-3 118,33 221,107 285,207 74,115 105,308 76,468 -38,212 -164,359 -355,416 -85,25 -249,21 -333,-7 z"
       id="path10"
       inkscape:connector-curvature="0" />
    <path
       d="m 7838,4717 c -228,-78 -363,-305 -343,-578 18,-265 144,-438 365,-503 68,-21 235,-22 305,-3 118,33 221,107 285,207 74,115 105,308 76,468 -38,212 -164,359 -355,416 -85,25 -249,21 -333,-7 z"
       id="path12"
       inkscape:connector-curvature="0" />
    <path
       d="m 5798,4717 c -228,-78 -363,-305 -343,-578 18,-265 144,-438 365,-503 68,-21 235,-22 305,-3 118,33 221,107 285,207 74,115 105,308 76,468 -38,212 -164,359 -355,416 -85,25 -249,21 -333,-7 z"
       id="path14"
       inkscape:connector-curvature="0" />
  </g>
</svg>
